<svg height="480pt" viewBox="0 0 480 480" width="480pt" xmlns="http://www.w3.org/2000/svg"><path d="m229.65625 80.96875-8.96875-8.96875h59.3125v-16h-59.3125l8.96875-8.96875-11.3125-11.3125-22.625 22.625c-3.121094 3.125-3.121094 8.1875 0 11.3125l22.625 22.625zm0 0"/><path d="m261.65625 83.71875-11.3125 11.3125 8.96875 8.96875h-59.3125v16h59.3125l-8.96875 8.96875 11.3125 11.3125 22.625-22.625c3.121094-3.125 3.121094-8.1875 0-11.3125zm0 0"/><path d="m456 256h-18.839844c23.78125-19.152344 32.894532-51.222656 22.742188-80.019531s-37.367188-48.058594-67.902344-48.058594-57.75 19.261719-67.902344 48.058594-1.039062 60.867187 22.742188 80.019531h-18.839844c-13.253906 0-24 10.746094-24 24v64c0 13.253906 10.746094 24 24 24h8v88c0 13.253906 10.746094 24 24 24h16c5.921875-.019531 11.625-2.246094 16-6.238281 4.375 3.992187 10.078125 6.21875 16 6.238281h16c13.253906 0 24-10.746094 24-24v-88h8c13.253906 0 24-10.746094 24-24v-64c0-13.253906-10.746094-24-24-24zm-104 112v-96h32v56h16v-56h32v96zm40-224c23.796875.054688 44.964844 15.128906 52.800781 37.601562l-27.199219-5.441406c-1.367187-.277344-2.777343-.1875-4.097656.253906l-21.503906 7.152344-21.472656-7.152344c-1.324219-.4375-2.742188-.527343-4.113282-.253906l-27.269531 5.519532c7.808594-22.523438 29.015625-37.640626 52.855469-37.679688zm-56 56c0-.464844.054688-.910156.070312-1.367188l31.425782-6.402343 21.976562 7.320312c1.640625.554688 3.414063.554688 5.054688 0l21.984375-7.328125 31.417969 6.289063c0 .488281.070312.960937.070312 1.457031 0 30.925781-25.070312 56-56 56s-56-25.074219-56-56zm-8 152c-4.417969 0-8-3.582031-8-8v-64c0-4.417969 3.582031-8 8-8h8v80zm48 112h-16c-4.417969 0-8-3.582031-8-8v-72h32v72c0 4.417969-3.582031 8-8 8zm48 0h-16c-4.417969 0-8-3.582031-8-8v-72h32v72c0 4.417969-3.582031 8-8 8zm40-120c0 4.417969-3.582031 8-8 8h-8v-80h8c4.417969 0 8 3.582031 8 8zm0 0"/><path d="m360 200h16v16h-16zm0 0"/><path d="m408 200h16v16h-16zm0 0"/><path d="m392 232c-3.746094-.128906-7.25-1.878906-9.601562-4.800781l-12.796876 9.601562c5.285157 7.050781 13.585938 11.199219 22.398438 11.199219s17.113281-4.148438 22.398438-11.199219l-12.796876-9.601562c-2.34375 2.929687-5.851562 4.683593-9.601562 4.800781zm0 0"/><path d="m152 256h-18.839844c23.78125-19.152344 32.894532-51.222656 22.742188-80.019531s-37.367188-48.058594-67.902344-48.058594-57.75 19.261719-67.902344 48.058594-1.039062 60.867187 22.742188 80.019531h-18.839844c-13.253906 0-24 10.746094-24 24v64c0 13.253906 10.746094 24 24 24h8v88c0 13.253906 10.746094 24 24 24h16c5.921875-.019531 11.625-2.246094 16-6.238281 4.375 3.992187 10.078125 6.21875 16 6.238281h16c13.253906 0 24-10.746094 24-24v-88h8c13.253906 0 24-10.746094 24-24v-64c0-13.253906-10.746094-24-24-24zm-104 112v-96h32v56h16v-56h32v96zm40-224c21.894531.027344 41.761719 12.808594 50.863281 32.71875-8.019531 2.214844-16.507812 2.09375-24.464843-.351562-7.910157-2.5625-14.953126-7.273438-20.351563-13.597657-1.5625-1.679687-3.753906-2.628906-6.046875-2.628906s-4.484375.949219-6.046875 2.628906c-5.402344 6.328125-12.453125 11.035157-20.367187 13.597657-7.949219 2.449218-16.433594 2.570312-24.449219.34375 9.101562-19.90625 28.972656-32.6875 50.863281-32.710938zm-56 56c.019531-2.679688.230469-5.351562.632812-8 5.328126 1.457031 10.824219 2.214844 16.351563 2.257812 5.90625.011719 11.78125-.886718 17.414063-2.664062 7.976562-2.53125 15.335937-6.703125 21.601562-12.25 15.050781 13.46875 35.957031 18.273438 55.375 12.726562 3.132812 20.820313-5.679688 41.636719-22.804688 53.882813s-39.675781 13.851563-58.363281 4.152344c-18.6875-9.695313-30.355469-29.050781-30.207031-50.105469zm-8 152c-4.417969 0-8-3.582031-8-8v-64c0-4.417969 3.582031-8 8-8h8v80zm48 112h-16c-4.417969 0-8-3.582031-8-8v-72h32v72c0 4.417969-3.582031 8-8 8zm48 0h-16c-4.417969 0-8-3.582031-8-8v-72h32v72c0 4.417969-3.582031 8-8 8zm40-120c0 4.417969-3.582031 8-8 8h-8v-80h8c4.417969 0 8 3.582031 8 8zm0 0"/><path d="m104 200h16v16h-16zm0 0"/><path d="m56 200h16v16h-16zm0 0"/><path d="m88 232c-3.75-.117188-7.257812-1.871094-9.601562-4.800781l-12.796876 9.601562c5.285157 7.050781 13.585938 11.199219 22.398438 11.199219s17.113281-4.148438 22.398438-11.199219l-12.796876-9.601562c-2.351562 2.921875-5.855468 4.671875-9.601562 4.800781zm0 0"/><path d="m240 0c-48.601562 0-88 39.398438-88 88s39.398438 88 88 88 88-39.398438 88-88c-.058594-48.578125-39.421875-87.9414062-88-88zm0 160c-39.765625 0-72-32.234375-72-72s32.234375-72 72-72 72 32.234375 72 72c-.042969 39.746094-32.253906 71.957031-72 72zm0 0"/></svg>